<svg width="24" height="15" viewBox="0 0 24 15" fill="none" xmlns="http://www.w3.org/2000/svg">
<g clip-path="url(#clip0_380_1507)">
<path d="M28 0H0V15H28V0Z" fill="#B22234"/>
<path d="M0 1.73071H28H0ZM28 4.03841H0H28ZM0 6.3461H28H0ZM28 8.65379H0H28ZM0 10.9615H28H0ZM28 13.2692H0H28Z" fill="black"/>
<path d="M28 13.8461H0V12.6923H28V13.8461ZM28 11.5384H0V10.3846H28V11.5384ZM28 9.23073H0V8.07689H28V9.23073ZM28 6.92304H0V5.76919H28V6.92304ZM28 4.61535H0V3.4615H28V4.61535ZM28 2.30765H0V1.15381H28V2.30765Z" fill="white"/>
<path d="M11.2 0H0V8.07692H11.2V0Z" fill="#3C3B6E"/>
<path d="M0.934013 0.346191L1.20154 1.18158L0.500977 0.664653H1.36252L0.666483 1.18158L0.934013 0.346191Z" fill="white"/>
<path d="M0.934013 1.96167L1.20154 2.79706L0.500977 2.28013H1.36252L0.664215 2.79706L0.934013 1.96167Z" fill="white"/>
<path d="M0.934065 3.5769L1.2016 4.41229L0.503296 3.89537H1.36483L0.666535 4.41229L0.934065 3.5769Z" fill="white"/>
<path d="M0.934065 5.19238L1.2016 6.02777L0.503296 5.51084H1.36483L0.666535 6.02777L0.934065 5.19238Z" fill="white"/>
<path d="M0.934065 6.80762L1.2016 7.643L0.503296 7.12608H1.36483L0.666535 7.643L0.934065 6.80762Z" fill="white"/>
<path d="M1.86589 1.15381L2.13342 1.98919L1.43512 1.47227H2.29666L1.60063 1.98919L1.86589 1.15381Z" fill="white"/>
<path d="M1.86589 2.76929L2.13342 3.60467L1.43512 3.08775H2.29666L1.59836 3.60467L1.86589 2.76929Z" fill="white"/>
<path d="M1.86589 4.38452L2.13342 5.21991L1.43512 4.70298H2.29666L1.59836 5.21991L1.86589 4.38452Z" fill="white"/>
<path d="M1.86589 6L2.13342 6.83538L1.43512 6.31846H2.29666L1.59836 6.83538L1.86589 6Z" fill="white"/>
<path d="M2.80009 0.346191L3.06762 1.18158L2.36932 0.664653H3.23086L2.53256 1.18158L2.80009 0.346191Z" fill="white"/>
<path d="M2.80009 1.96167L3.06762 2.79706L2.36932 2.28013H3.23086L2.53256 2.79706L2.80009 1.96167Z" fill="white"/>
<path d="M2.80009 3.5769L3.06762 4.41229L2.36932 3.89537H3.23086L2.53256 4.41229L2.80009 3.5769Z" fill="white"/>
<path d="M2.80009 5.19238L3.06762 6.02777L2.36932 5.51084H3.23086L2.53256 6.02777L2.80009 5.19238Z" fill="white"/>
<path d="M2.80009 6.80762L3.06762 7.643L2.36932 7.12608H3.23086L2.53256 7.643L2.80009 6.80762Z" fill="white"/>
<path d="M3.73448 1.15381L4.00201 1.98919L3.30371 1.47227H4.16525L3.46695 1.98919L3.73448 1.15381Z" fill="white"/>
<path d="M3.73448 2.76929L4.00201 3.60467L3.30371 3.08775H4.16525L3.46695 3.60467L3.73448 2.76929Z" fill="white"/>
<path d="M3.73448 4.38452L4.00201 5.21991L3.30371 4.70298H4.16525L3.46695 5.21991L3.73448 4.38452Z" fill="white"/>
<path d="M3.73448 6L4.00201 6.83538L3.30371 6.31846H4.16525L3.46695 6.83538L3.73448 6Z" fill="white"/>
<path d="M4.66612 0.346191L4.93365 1.18158L4.23535 0.664653H5.09689L4.39859 1.18158L4.66612 0.346191Z" fill="white"/>
<path d="M4.66612 1.96167L4.93365 2.79706L4.23535 2.28013H5.09689L4.39859 2.79706L4.66612 1.96167Z" fill="white"/>
<path d="M4.66612 3.5769L4.93365 4.41229L4.23535 3.89537H5.09689L4.39859 4.41229L4.66612 3.5769Z" fill="white"/>
<path d="M4.66612 5.19238L4.93365 6.02777L4.23535 5.51084H5.09689L4.39859 6.02777L4.66612 5.19238Z" fill="white"/>
<path d="M4.66612 6.80762L4.93365 7.643L4.23535 7.12608H5.09689L4.39859 7.643L4.66612 6.80762Z" fill="white"/>
<path d="M5.59971 1.15381L5.86724 1.98919L5.16895 1.47227H6.03048L5.33218 1.98919L5.59971 1.15381Z" fill="white"/>
<path d="M5.59971 2.76929L5.86724 3.60467L5.16895 3.08775H6.03048L5.33218 3.60467L5.59971 2.76929Z" fill="white"/>
<path d="M5.59971 4.38452L5.86724 5.21991L5.16895 4.70298H6.03048L5.33218 5.21991L5.59971 4.38452Z" fill="white"/>
<path d="M5.59971 6L5.86724 6.83538L5.16895 6.31846H6.03048L5.33218 6.83538L5.59971 6Z" fill="white"/>
<path d="M6.53447 0.346191L6.802 1.18158L6.1037 0.664653H6.96524L6.26694 1.18158L6.53447 0.346191Z" fill="white"/>
<path d="M6.53447 1.96167L6.802 2.79706L6.1037 2.28013H6.96524L6.26694 2.79706L6.53447 1.96167Z" fill="white"/>
<path d="M6.53447 3.5769L6.802 4.41229L6.1037 3.89537H6.96524L6.26694 4.41229L6.53447 3.5769Z" fill="white"/>
<path d="M6.53447 5.19238L6.802 6.02777L6.1037 5.51084H6.96524L6.26694 6.02777L6.53447 5.19238Z" fill="white"/>
<path d="M6.53447 6.80762L6.802 7.643L6.1037 7.12608H6.96524L6.26694 7.643L6.53447 6.80762Z" fill="white"/>
<path d="M7.46574 1.15381L7.73327 1.98919L7.03497 1.47227H7.89651L7.19821 1.98919L7.46574 1.15381Z" fill="white"/>
<path d="M7.46574 2.76929L7.73327 3.60467L7.03497 3.08775H7.89651L7.19821 3.60467L7.46574 2.76929Z" fill="white"/>
<path d="M7.46574 4.38452L7.73327 5.21991L7.03497 4.70298H7.89651L7.19821 5.21991L7.46574 4.38452Z" fill="white"/>
<path d="M7.46574 6L7.73327 6.83538L7.03497 6.31846H7.89651L7.19821 6.83538L7.46574 6Z" fill="white"/>
<path d="M8.39964 0.346191L8.66717 1.18158L7.96887 0.664653H8.83041L8.13211 1.18158L8.39964 0.346191Z" fill="white"/>
<path d="M8.39964 1.96167L8.66717 2.79706L7.96887 2.28013H8.83041L8.13211 2.79706L8.39964 1.96167Z" fill="white"/>
<path d="M8.39964 3.5769L8.66717 4.41229L7.96887 3.89537H8.83041L8.13211 4.41229L8.39964 3.5769Z" fill="white"/>
<path d="M8.39964 5.19238L8.66717 6.02777L7.96887 5.51084H8.83041L8.13211 6.02777L8.39964 5.19238Z" fill="white"/>
<path d="M8.39964 6.80762L8.66717 7.643L7.96887 7.12608H8.83041L8.13211 7.643L8.39964 6.80762Z" fill="white"/>
<path d="M9.33391 1.15381L9.60144 1.98919L8.90314 1.47227H9.76468L9.06638 1.98919L9.33391 1.15381Z" fill="white"/>
<path d="M9.33391 2.76929L9.60144 3.60467L8.90314 3.08775H9.76468L9.06638 3.60467L9.33391 2.76929Z" fill="white"/>
<path d="M9.33391 4.38452L9.60144 5.21991L8.90314 4.70298H9.76468L9.06638 5.21991L9.33391 4.38452Z" fill="white"/>
<path d="M9.33391 6L9.60144 6.83538L8.90314 6.31846H9.76468L9.06638 6.83538L9.33391 6Z" fill="white"/>
<path d="M10.2657 0.346191L10.5333 1.18158L9.83496 0.664653H10.6965L9.9982 1.18158L10.2657 0.346191Z" fill="white"/>
<path d="M10.2657 1.96167L10.5333 2.79706L9.83496 2.28013H10.6965L9.9982 2.79706L10.2657 1.96167Z" fill="white"/>
<path d="M10.2657 3.5769L10.5333 4.41229L9.83496 3.89537H10.6965L9.9982 4.41229L10.2657 3.5769Z" fill="white"/>
<path d="M10.2657 5.19238L10.5333 6.02777L9.83496 5.51084H10.6965L9.9982 6.02777L10.2657 5.19238Z" fill="white"/>
<path d="M10.2657 6.80762L10.5333 7.643L9.83496 7.12608H10.6965L9.9982 7.643L10.2657 6.80762Z" fill="white"/>
</g>
<defs>
<clipPath id="clip0_380_1507">
<rect width="24" height="15" fill="white"/>
</clipPath>
</defs>
</svg>
